# xmcd
#
# Track frame offsets: 
#        150
#        33827
#        54012
#        70840
#        93150
#        110190
#        135947
#        156557
#        174175
#        188959
#        213645
#        232432
#
# Disc length: 3259 seconds
#
# Revision: 0
# Processed by: cddbd v1.4PL0 Copyright (c) Steve Scherf et al.
# Submitted via: ExactAudioCopy v0.90b4
#
DISCID=a50cb90c
DTITLE=Malsted Sessions - Lazy Poker Blues Band
DYEAR=1996
DGENRE=Blues
TTITLE0=Downhome Blues
TTITLE1=Breaking Up Somebody's Home
TTITLE2=Big Boss Man
TTITLE3=All Your Love
TTITLE4=Look On Yonders Wall
TTITLE5=Clouds In My Heart, She's 19 Years
TTITLE6=Hello Baby
TTITLE7=Born Under A Bad Sign
TTITLE8=If You Love Me Like You Say
TTITLE9=I Wonder Why
TTITLE10=It's My Fault
TTITLE11=Guilty
EXTD=
EXTT0=
EXTT1=
EXTT2=
EXTT3=
EXTT4=
EXTT5=
EXTT6=
EXTT7=
EXTT8=
EXTT9=
EXTT10=
EXTT11=
PLAYORDER=
